<svg width="1200" height="177" viewBox="0 0 1200 177" fill="none" xmlns="http://www.w3.org/2000/svg">
<path d="M1782.5 507.5C1782.5 577.335 1749.79 643.904 1690.54 704.498C1631.29 765.093 1545.54 819.686 1439.53 865.544C1227.52 957.26 934.587 1014 611 1014C287.413 1014 -5.51666 957.26 -217.531 865.544C-323.538 819.686 -409.294 765.093 -468.541 704.498C-527.785 643.904 -560.5 577.335 -560.5 507.5C-560.5 437.665 -527.785 371.096 -468.541 310.502C-409.294 249.907 -323.538 195.314 -217.531 149.456C-5.51666 57.7398 287.413 1 611 1C934.587 1 1227.52 57.7398 1439.53 149.456C1545.54 195.314 1631.29 249.907 1690.54 310.502C1749.79 371.096 1782.5 437.665 1782.5 507.5Z" fill="url(#paint0_radial_2002_667)" stroke="#B48CDE"/>
<defs>
<radialGradient id="paint0_radial_2002_667" cx="0" cy="0" r="1" gradientUnits="userSpaceOnUse" gradientTransform="translate(611 507.5) rotate(90) scale(521 1204.36)">
<stop offset="0.822011" stop-color="#0C0A09"/>
<stop offset="1" stop-color="#9560EB"/>
</radialGradient>
</defs>
</svg>
