<svg width="481" height="302" viewBox="0 0 481 302" fill="none" xmlns="http://www.w3.org/2000/svg">
<path d="M148.166 234.752L147.134 235.374L75.3156 278.638L75.2945 278.651L75.2738 278.664C72.4375 280.469 69.5517 281.203 66.563 280.954C63.4657 280.696 60.8113 279.674 58.5393 277.907L58.5349 277.904C56.1936 276.093 54.3715 273.822 53.0609 271.065C51.8405 268.497 51.5589 265.577 52.3371 262.201L148.166 234.752ZM148.166 234.752L149.198 235.374L221.016 278.638L221.037 278.651L221.057 278.664C223.894 280.469 226.78 281.203 229.768 280.954C232.866 280.696 235.52 279.674 237.792 277.907C240.136 276.084 241.959 273.806 243.27 271.047C244.492 268.478 244.772 265.562 243.994 262.199L224.958 180.432L224.684 179.255L225.598 178.465L289.181 123.534C291.789 121.181 293.335 118.584 293.948 115.735C294.585 112.775 294.395 109.915 293.383 107.112C292.332 104.224 290.782 101.922 288.754 100.148C286.829 98.4634 284.075 97.2797 280.323 96.7365L196.447 89.3864L195.246 89.2812L194.778 88.1706L162.33 11.1609L162.327 11.1536C161.042 8.06887 159.089 5.8289 156.468 4.33411C153.703 2.75719 150.944 2.00098 148.166 2.00098C145.375 2.00098 142.617 2.75773 139.866 4.33248C137.255 5.82733 135.3 8.06924 134.002 11.1588L134.001 11.1609L101.553 88.1706L101.085 89.2812L99.8847 89.3864L16.0079 96.7365C12.2565 97.2797 9.50214 98.4634 7.57706 100.148C5.54846 101.923 3.99835 104.225 2.94797 107.114C1.92383 109.93 1.72934 112.795 2.36597 115.752C2.97891 118.599 4.52814 121.19 7.14758 123.531C7.15143 123.535 7.15524 123.538 7.15909 123.541L70.7329 178.465L71.6472 179.255L71.3733 180.432L52.338 262.197L148.166 234.752Z" stroke="#B78EFF" stroke-opacity="0.32" stroke-width="4"/>
<path d="M377.474 267.722L378.506 267.1L379.538 267.722L429.024 297.532L429.045 297.545L429.066 297.558C430.916 298.735 432.77 299.2 434.683 299.041C436.704 298.873 438.416 298.21 439.881 297.071C441.418 295.875 442.613 294.383 443.476 292.568C444.249 290.942 444.44 289.079 443.93 286.878L430.814 230.538L430.54 229.361L431.454 228.571L475.26 190.725C476.972 189.18 477.958 187.503 478.349 185.687C478.764 183.76 478.64 181.908 477.983 180.088C477.291 178.187 476.279 176.692 474.969 175.545C473.76 174.488 471.992 173.708 469.497 173.345L411.72 168.282L410.519 168.176L410.051 167.066L387.693 114.003L387.69 113.995C386.853 111.987 385.596 110.554 383.919 109.597C382.097 108.559 380.301 108.071 378.506 108.071C376.702 108.071 374.907 108.559 373.097 109.596C371.425 110.553 370.166 111.987 369.32 114.001L369.319 114.003L346.961 167.066L346.493 168.176L345.293 168.282L287.515 173.345C285.02 173.708 283.252 174.488 282.044 175.545C280.733 176.692 279.721 178.188 279.029 180.09C278.364 181.919 278.237 183.774 278.652 185.699C279.042 187.513 280.03 189.185 281.749 190.722L325.558 228.571L326.472 229.361L326.198 230.538L313.083 286.877C313.082 286.877 313.082 286.878 313.082 286.879C312.572 289.089 312.764 290.955 313.536 292.58C314.399 294.394 315.593 295.881 317.127 297.067L317.131 297.071C318.596 298.21 320.309 298.873 322.33 299.041C324.242 299.2 326.097 298.735 327.947 297.558L327.967 297.545L327.988 297.532L377.474 267.722Z" stroke="#B78EFF" stroke-opacity="0.32" stroke-width="4"/>
</svg>
