<svg width="27" height="28" viewBox="0 0 27 28" fill="none" xmlns="http://www.w3.org/2000/svg">
<path d="M6.52699 16.887C7.00206 17.1406 7.47304 17.4027 7.94197 17.6708C8.04899 17.732 8.15609 17.7929 8.26319 17.8539C8.57991 18.0345 8.89561 18.2167 9.20816 18.4065C9.50684 18.5876 9.80917 18.76 10.1122 18.9313C10.1608 18.9588 10.2094 18.9863 10.258 19.0138C10.4579 19.1269 10.6577 19.2399 10.8578 19.3524C10.9821 19.4223 11.1062 19.4925 11.2303 19.5629C11.2767 19.5892 11.3231 19.6153 11.3695 19.6413C11.9507 19.9665 12.4632 20.3622 12.9394 20.8638C13.0095 20.9408 13.0095 20.9408 13.0867 20.9804C13.0867 20.9531 13.0867 20.9258 13.0867 20.8977C13.1747 20.7909 13.2775 20.7012 13.3767 20.6083C13.4096 20.5769 13.4426 20.5456 13.4766 20.5133C13.6938 20.3143 13.9171 20.1409 14.1585 19.9824C14.1882 19.9629 14.2179 19.9434 14.2485 19.9232C14.6029 19.693 14.9679 19.4878 15.3337 19.2826C15.4689 19.2064 15.6041 19.1301 15.7392 19.0537C15.7725 19.0348 15.8059 19.016 15.8403 18.9966C16.0473 18.8792 16.2524 18.7584 16.4565 18.6346C16.915 18.3566 17.3806 18.0945 17.8453 17.8303C17.967 17.7611 18.0886 17.6919 18.2102 17.6226C18.6889 17.3499 18.6889 17.3499 18.8694 17.2478C18.9585 17.1968 19.0471 17.1453 19.1356 17.0929C19.1588 17.0792 19.1821 17.0656 19.206 17.0516C19.2711 17.0133 19.3361 16.9748 19.401 16.9363C19.4342 16.92 19.4673 16.9037 19.5015 16.887C19.5254 16.9006 19.5493 16.9143 19.574 16.9283C19.3032 17.4028 19.0324 17.8734 18.7155 18.3098C18.6692 18.3737 18.6238 18.4384 18.5785 18.5031C18.3304 18.8504 18.0544 19.1669 17.7777 19.4841C17.7489 19.5174 17.7489 19.5174 17.7195 19.5513C17.468 19.8403 17.2099 20.109 16.9283 20.3602C16.8995 20.3862 16.8706 20.4123 16.8409 20.4391C14.7568 22.3035 14.7568 22.3035 14.029 22.3035C14.0409 22.3268 14.0528 22.35 14.0651 22.374C14.1965 22.6389 14.3108 22.9102 14.4209 23.1873C14.4353 23.2232 14.4496 23.2591 14.4645 23.2961C14.4847 23.3476 14.4847 23.3476 14.5054 23.4002C14.5175 23.4309 14.5296 23.4616 14.542 23.4932C14.5749 23.592 14.5931 23.688 14.6089 23.7921C14.5775 23.7739 14.5462 23.7558 14.5139 23.7371C14.3855 23.6632 14.2566 23.5903 14.1277 23.5174C14.0572 23.4773 13.9869 23.4369 13.9167 23.3962C13.7966 23.3268 13.6762 23.2583 13.5556 23.1899C13.5168 23.1672 13.4781 23.1445 13.4381 23.1212C13.401 23.1003 13.3638 23.0795 13.3256 23.058C13.2926 23.0391 13.2597 23.0202 13.2257 23.0007C12.9792 22.9153 12.776 23.0457 12.5616 23.1733C12.5332 23.1898 12.5048 23.2062 12.4755 23.2232C12.3854 23.2754 12.2955 23.3283 12.2056 23.3812C12.115 23.4341 12.0244 23.4869 11.9338 23.5396C11.8775 23.5723 11.8213 23.6052 11.7652 23.6383C11.5726 23.7507 11.5726 23.7507 11.4921 23.7507C11.5966 23.234 11.8411 22.7594 12.072 22.3035C12.0487 22.3003 12.0254 22.2971 12.0015 22.2938C11.8459 22.2494 11.7117 22.1692 11.5691 22.0865C11.5376 22.0683 11.506 22.05 11.4735 22.0313C10.4854 21.4547 9.53201 20.7942 8.72145 19.922C8.64545 19.8404 8.5683 19.7625 8.48857 19.6857C8.12683 19.3264 7.80164 18.9294 7.50552 18.4996C7.45273 18.4271 7.39988 18.3548 7.34696 18.2825C6.52699 17.1377 6.52699 17.1377 6.52699 16.887Z" fill="#F0F1F4"/>
<path d="M2.6129 9.44443C2.73808 9.47134 2.827 9.52775 2.93426 9.60513C2.96893 9.63 3.00359 9.65486 3.0393 9.68048C3.09509 9.72097 3.09509 9.72097 3.15199 9.76229C3.21016 9.80414 3.21016 9.80414 3.2695 9.84684C3.38903 9.93296 3.50838 10.0194 3.62766 10.106C3.66225 10.1311 3.69683 10.1562 3.73246 10.182C3.86316 10.2769 3.99383 10.3718 4.12441 10.4668C4.36867 10.6445 4.61405 10.8201 4.85988 10.995C5.20857 11.243 5.55566 11.4938 5.90211 11.7458C6.08217 11.8768 6.26259 12.0072 6.44318 12.1372C6.4853 12.1675 6.4853 12.1675 6.52827 12.1985C6.6124 12.259 6.69654 12.3196 6.78068 12.3801C7.17736 12.6655 7.57367 12.9516 7.96906 13.2393C8.12974 13.3562 8.29064 13.4725 8.45233 13.5876C9.39494 14.2588 10.2543 15.0253 10.9122 16.06C10.9285 16.0854 10.9447 16.1108 10.9614 16.137C11.5745 17.1043 12.1546 18.2464 12.2894 19.4506C12.1537 19.3933 12.0354 19.3222 11.9124 19.2354C11.8746 19.2088 11.8368 19.1822 11.7978 19.1548C11.7373 19.1119 11.7373 19.1119 11.6756 19.0681C11.6331 19.0381 11.5907 19.0082 11.5482 18.9782C11.2526 18.7693 10.9587 18.5572 10.6657 18.3435C10.4204 18.1646 10.1739 17.9879 9.92691 17.8122C9.60934 17.5862 9.29237 17.3591 8.97613 17.1307C8.86343 17.0493 8.75054 16.9683 8.6375 16.8875C7.89045 16.353 7.16708 15.7978 6.49075 15.1504C6.47263 15.1332 6.45451 15.116 6.43585 15.0982C6.11921 14.797 5.81994 14.4809 5.52946 14.1471C5.46431 14.0724 5.39878 13.9981 5.33321 13.9238C5.11218 13.6719 4.90298 13.4172 4.70939 13.1371C4.64558 13.0462 4.57872 12.961 4.50879 12.8763C3.97166 12.1938 2.6129 10.3779 2.6129 9.44443Z" fill="#F1F2F5"/>
<path d="M23.4518 9.44443C23.1009 10.8199 22.1228 12.1364 21.3136 13.2071C21.2913 13.2367 21.269 13.2663 21.2461 13.2969C20.8271 13.8491 20.3895 14.3889 19.9002 14.861C19.8655 14.8959 19.8309 14.9308 19.7953 14.9668C18.9805 15.7853 18.0683 16.4474 17.1479 17.0981C16.9642 17.228 16.7809 17.3585 16.5976 17.4891C16.5616 17.5148 16.5255 17.5405 16.4884 17.567C16.2149 17.7621 15.9426 17.9593 15.6707 18.1574C15.3864 18.3643 15.1003 18.568 14.8139 18.7713C14.5621 18.9504 14.3123 19.1328 14.0652 19.3204C13.8918 19.4506 13.8918 19.4506 13.8116 19.4506C13.8311 19.1543 13.8889 18.8941 13.9724 18.6133C13.9852 18.57 13.9981 18.5267 14.0113 18.4822C14.3648 17.3245 14.9487 16.2399 15.6961 15.3571C15.7196 15.329 15.7431 15.301 15.7673 15.272C16.3761 14.547 17.0163 14.0096 17.7656 13.4873C17.9201 13.3792 18.0732 13.2687 18.2263 13.158C18.2821 13.1176 18.338 13.0773 18.3939 13.037C18.4212 13.0173 18.4484 12.9976 18.4765 12.9773C18.5599 12.9171 18.6434 12.857 18.7268 12.797C19.0338 12.5761 19.3404 12.3545 19.6465 12.132C19.9803 11.8895 20.3147 11.648 20.6494 11.4071C20.7923 11.3043 20.9352 11.2013 21.078 11.0983C21.1354 11.057 21.1928 11.0156 21.2502 10.9743C21.2786 10.9538 21.307 10.9334 21.3362 10.9123C21.4223 10.8502 21.5084 10.7882 21.5945 10.7262C21.6371 10.6955 21.6371 10.6955 21.6806 10.6642C21.7378 10.6229 21.7951 10.5816 21.8524 10.5403C21.9973 10.436 22.1421 10.3316 22.2869 10.2271C22.4298 10.124 22.5728 10.0211 22.7159 9.91819C22.8004 9.85726 22.8847 9.79606 22.9691 9.73483C23.022 9.6966 23.075 9.65837 23.1279 9.62015C23.1523 9.60235 23.1767 9.58454 23.2019 9.56619C23.3711 9.44443 23.3711 9.44443 23.4518 9.44443Z" fill="#F1F2F5"/>
<path d="M22.8357 4.85484C22.8596 4.85484 22.8835 4.85484 22.9082 4.85484C22.8853 5.00925 22.8469 5.14353 22.7939 5.28786C22.7779 5.33145 22.7619 5.37504 22.7455 5.41996C22.7281 5.46628 22.7108 5.51261 22.693 5.56033C22.675 5.60836 22.6571 5.65639 22.6386 5.70588C22.1249 7.06647 21.4477 8.338 20.5617 9.42634C20.4924 9.51176 20.4259 9.59863 20.3599 9.68734C20.2429 9.84075 20.1187 9.98518 19.993 10.1292C19.9739 10.1512 19.9549 10.1731 19.9353 10.1957C19.6934 10.4705 19.4319 10.7193 19.1685 10.9665C19.1417 10.9917 19.1148 11.017 19.0872 11.0429C18.8937 11.2238 18.697 11.3987 18.4979 11.5714C18.3589 11.6929 18.2236 11.8195 18.088 11.946C17.914 12.1083 17.739 12.2685 17.5603 12.424C17.3675 12.5918 17.1778 12.7634 16.9888 12.9366C16.7712 13.1359 16.552 13.3327 16.3321 13.5288C16.2793 13.5762 16.2268 13.624 16.1743 13.6719C16.1451 13.6984 16.1158 13.725 16.0857 13.7523C16.0608 13.7751 16.036 13.7978 16.0104 13.8213C15.9498 13.8686 15.9498 13.8686 15.8773 13.8686C15.9714 12.5602 16.4637 11.33 17.182 10.3127C17.2059 10.2771 17.2297 10.2415 17.2543 10.2048C17.6216 9.66938 18.0548 9.20704 18.5297 8.79895C18.6505 8.69336 18.7677 8.58275 18.8854 8.47276C19.0855 8.28633 19.2873 8.10276 19.491 7.92135C19.6531 7.77656 19.8131 7.62893 19.9726 7.48041C20.1728 7.29403 20.3746 7.11042 20.5782 6.929C20.7404 6.78421 20.9003 6.63659 21.0599 6.48807C21.2397 6.32062 21.4205 6.15489 21.6035 5.9919C21.8388 5.78224 22.0705 5.56771 22.3018 5.35246C22.4461 5.21834 22.5913 5.08576 22.737 4.95369C22.7966 4.90085 22.7966 4.90085 22.8357 4.85484Z" fill="#F1F2F5"/>
<path d="M3.19276 4.85484C3.58857 5.189 3.97242 5.54014 4.35384 5.89524C4.50917 6.03963 4.66572 6.182 4.82364 6.32268C5.03167 6.508 5.23668 6.69727 5.44116 6.88766C5.59647 7.03201 5.75299 7.17437 5.91088 7.31502C6.11892 7.50034 6.32393 7.68961 6.52841 7.88C6.68372 8.02435 6.84024 8.1667 6.99813 8.30737C7.25678 8.5379 7.51137 8.77393 7.76551 9.01088C7.82524 9.06631 7.88528 9.12127 7.94551 9.17599C9.08967 10.2225 9.93761 11.8452 10.1874 13.4965C10.1965 13.625 10.1956 13.7399 10.1874 13.8686C10.0865 13.815 10.0036 13.7559 9.91799 13.6748C9.89472 13.6529 9.87145 13.6311 9.84748 13.6086C9.82286 13.5852 9.79824 13.5619 9.77288 13.5378C9.55493 13.3334 9.3344 13.1345 9.11006 12.9393C8.95572 12.8043 8.80438 12.665 8.65278 12.5261C8.50063 12.3867 8.34773 12.2486 8.19411 12.1113C7.995 11.9334 7.79722 11.7537 7.60002 11.573C7.46883 11.453 7.33689 11.3342 7.20407 11.2165C7.09861 11.1228 6.9939 11.0281 6.88941 10.9329C6.83363 10.8823 6.83363 10.8823 6.77672 10.8305C6.47297 10.5471 6.19558 10.2328 5.91768 9.91734C5.89826 9.8954 5.87883 9.87345 5.85882 9.85084C5.60544 9.56397 5.37046 9.26915 5.14981 8.94825C5.12943 8.91918 5.10904 8.89011 5.08804 8.86016C4.42041 7.90432 3.19276 6.12574 3.19276 4.85484Z" fill="#F1F2F5"/>
</svg>
