<svg width="28" height="26" viewBox="0 0 28 26" fill="none" xmlns="http://www.w3.org/2000/svg">
<g clip-path="url(#clip0_2016_707)">
<path d="M9.6222 17.6084C9.42792 17.9706 9.1569 18.2006 8.87253 18.3475C8.73832 18.4175 8.5997 18.4659 8.46724 18.499L8.00985 17.0262H4.7605L5.89336 22.0096C5.96225 22.3134 6.26865 22.5334 6.62534 22.5334H8.74539C8.97849 22.5334 9.19747 22.4388 9.33875 22.278C9.48093 22.1173 9.52772 21.9089 9.4668 21.7135L8.6739 19.1634C8.73482 19.1488 8.79664 19.1318 8.85846 19.1118C9.27348 18.9795 9.70262 18.7327 10.0381 18.339C10.2827 18.0544 10.4726 17.6938 10.5794 17.2585C10.3295 17.2169 10.069 17.1793 9.7997 17.1462C9.75466 17.32 9.69459 17.4738 9.6222 17.6084Z" fill="black"/>
<path d="M18.8784 5.13452C18.2815 5.13452 17.32 6.02125 16.905 6.38266C16.5447 6.69643 13.706 9.15658 6.50613 9.15658V16.4917C13.7059 16.4917 16.5447 18.9519 16.905 19.2665C17.32 19.6271 18.2815 20.5139 18.8784 20.5139C19.4744 20.5139 19.9583 20.0924 19.9583 19.5733V6.07504C19.9583 5.55598 19.4744 5.13452 18.8784 5.13452Z" fill="black"/>
<path d="M5.52343 9.15662C3.19763 9.15662 1.3125 10.7985 1.3125 12.8242C1.3125 14.8498 3.19763 16.4917 5.52343 16.4917V9.15662Z" fill="black"/>
<path d="M20.8298 11.4476V14.2008C21.7022 14.2008 22.4103 13.5848 22.4103 12.8242C22.4103 12.0637 21.7022 11.4476 20.8298 11.4476Z" fill="black"/>
<path d="M30.2459 12.3688H25.9917V13.0878H30.2459V12.3688Z" fill="black"/>
<path d="M29.2348 7.51851L28.7916 6.91248L24.9207 9.06117L25.3657 9.66794L29.2348 7.51851Z" fill="black"/>
<path d="M24.9207 16.6917L28.7916 18.8412L29.2348 18.2344L25.3657 16.0857L24.9207 16.6917Z" fill="black"/>
</g>
<defs>
<clipPath id="clip0_2016_707">
<rect width="28.9333" height="25.2" fill="white" transform="translate(-1.39999)"/>
</clipPath>
</defs>
</svg>
