<svg width="20" height="20" viewBox="0 0 20 20" fill="none" xmlns="http://www.w3.org/2000/svg">
<g clip-path="url(#clip0_2016_771)">
<path d="M15.8333 0.833333C15.8333 0.373096 16.2064 0 16.6667 0C17.1269 0 17.5 0.373096 17.5 0.833333V1.32152L18.5591 0.262412C18.8845 -0.0630254 19.4122 -0.0630245 19.7376 0.262412C20.0631 0.587849 20.0631 1.11548 19.7376 1.44093L18.6785 2.5H19.1667C19.6269 2.5 20 2.8731 20 3.33333C20 3.79357 19.6269 4.16667 19.1667 4.16667H17.0118L10.5848 10.5937C10.2593 10.9192 9.73168 10.9192 9.40626 10.5937C9.08085 10.2683 9.08085 9.74067 9.40626 9.41525L15.8333 2.98818V0.833333Z" fill="#0F0F0F"/>
<path d="M14.4937 3.15761C14.8617 2.78962 14.8064 2.17567 14.3485 1.92844C13.0546 1.22988 11.5736 0.833374 10 0.833374C4.9374 0.833374 0.833344 4.93743 0.833344 10C0.833344 15.0626 4.9374 19.1667 10 19.1667C15.0626 19.1667 19.1667 15.0626 19.1667 10C19.1667 8.42954 18.7718 6.95132 18.0758 5.65922C17.8288 5.2008 17.2145 5.14524 16.8463 5.51342L16.8213 5.53836C16.5462 5.8135 16.5027 6.24032 16.68 6.58668C17.2043 7.61054 17.5 8.77079 17.5 10C17.5 14.1422 14.1422 17.5 10 17.5C5.85788 17.5 2.50001 14.1422 2.50001 10C2.50001 5.85791 5.85788 2.50004 10 2.50004C11.2318 2.50004 12.3943 2.79702 13.4198 3.3233C13.7663 3.50112 14.1935 3.45778 14.4689 3.18241L14.4937 3.15761Z" fill="#0F0F0F"/>
<path d="M11.9916 5.65962C12.3854 5.26581 12.2863 4.60268 11.7552 4.4353C11.2012 4.26075 10.6116 4.16663 9.99999 4.16663C6.77833 4.16663 4.16666 6.7783 4.16666 9.99996C4.16666 13.2216 6.77833 15.8333 9.99999 15.8333C13.2217 15.8333 15.8333 13.2216 15.8333 9.99996C15.8333 9.39179 15.7402 8.80529 15.5676 8.25404C15.4009 7.72212 14.7372 7.62243 14.3431 8.01658L14.2662 8.09349C14.0318 8.32777 13.9662 8.67696 14.0456 8.99863C14.1247 9.31938 14.1667 9.65479 14.1667 9.99996C14.1667 12.3011 12.3012 14.1666 9.99999 14.1666C7.69881 14.1666 5.83332 12.3011 5.83332 9.99996C5.83332 7.69878 7.69881 5.83329 9.99999 5.83329C10.3477 5.83329 10.6854 5.87588 11.0083 5.95613C11.3304 6.03618 11.6805 5.97076 11.9152 5.73605L11.9916 5.65962Z" fill="#0F0F0F"/>
<path d="M9.23167 7.62608C9.57283 7.51232 9.7445 7.90669 9.49017 8.16103L8.81892 8.83237C8.16878 9.48245 8.16878 10.5365 8.81892 11.1865C9.469 11.8366 10.523 11.8366 11.1731 11.1865L11.8359 10.5237C12.0908 10.2689 12.4852 10.4417 12.3691 10.783C12.0342 11.7674 11.0946 12.5 10 12.5C8.61925 12.5 7.5 11.3807 7.5 9.99995C7.5 8.89962 8.24023 7.95663 9.23167 7.62608Z" fill="#0F0F0F"/>
</g>
<defs>
<clipPath id="clip0_2016_771">
<rect width="20" height="20" fill="white"/>
</clipPath>
</defs>
</svg>
